<?xml version="1.0" encoding="UTF-8"?>
<svg version="1.1" viewBox="0 0 2048 2048" width="1280" height="1280" xmlns="http://www.w3.org/2000/svg">
<path transform="translate(1486,959)" d="m0 0h33l37 3 31 4 26 5 23 6 36 12 26 11 25 12 22 12 24 15 11 8 13 9 12 10 10 8 11 10 8 7 20 20 7 8 11 12 9 11 10 13 18 27 12 20 12 22 12 26 14 38 9 31 7 30 5 32 3 39v37l-2 30-3 27-6 31-8 32-9 27-8 21-12 26-11 21-14 24-6 8-7 11-13 18-13 16-9 10-15 16-17 17-8 7-12 10-11 9-15 11-20 13-18 11-16 9-16 8-23 11-29 11-25 8-33 8-26 5-23 3-25 2h-62l-31-3-27-4-40-10-33-11-30-12-25-12-21-12-18-11-12-8-18-13-16-13-11-9-11-11-8-7-12-12v-2h-2l-7-8-11-12-11-14-14-19-11-17-13-21-15-28-13-29-10-27-9-29-7-30-5-31-2-19-1-16v-63l3-33 6-36 9-33 9-27 11-27 14-29 10-18 11-18 13-20 21-28 8-9 7-8 16-17 20-20 8-7 14-12 17-13 16-11 19-12 21-12 16-8 21-10 31-12 26-8 28-7 35-6 37-4zm-18 64-30 5-40 9-25 7-29 10-23 10-20 10-17 10-15 10-10 7-12 9-16 13-12 11-27 27-7 8-13 16-8 10-7 11-10 16-12 21-15 32-9 24-8 24-7 32-5 32-3 30v47l4 36 6 33 5 20 11 33 10 24 13 27 13 22 12 18 16 21 12 14 8 10h2l2 4 14 14 8 7 14 12 10 8 15 11 15 10 25 15 29 15 19 8 18 7 26 8 38 8 32 4 12 1 37 1 30-2 29-4 30-6 28-8 22-8 25-11 28-14 16-10 27-18 13-10 10-8 1-4-8-8-10-8-46-46-1-2h-2l-2-4-18-18-10 3-9 6-25 15-16 9-19 8-18 6-23 6-23 4-18 2-27 1h-13l-16-1-30-5-25-7-20-7-13-6-22-11-24-16-10-8-11-9-17-16-3-4h-2l-2-4-10-11-14-19-15-25-12-25-9-23-7-25-5-26-2-27v-24l2-27 5-27 5-17 7-19 9-20 11-21 15-24 11-14 11-13 14-15 8-7 13-11 17-12 22-13 27-13 24-9 28-7 25-6 2-4-1-124zm69 1-1 5-1 45v75l1 3 35 8 23 7 26 10 21 10 23 14 13 10 8 6 15 13 18 18 9 11 10 13 11 17 14 27 7 15 10 30 6 26 4 20 5 1h46l73-1 4-1-1-16-7-38-8-32-10-29-10-24-12-25-13-23-12-18-10-14-9-11-12-14-16-17-9-9-8-7-10-9-14-11-14-10-18-12-21-12-17-9-25-11-30-11-24-7-27-6-38-7zm-51 192-23 3-27 7-18 6-16 8-14 8-12 8-14 11-10 9-14 14-9 11-7 9-11 18-10 18-8 21-8 29-4 25-1 11v21l3 24 6 25 8 24 8 16 10 18 14 19 13 15 8 8 11 9 13 10 11 7 21 12 21 9 26 8 23 4 10 1h32l28-4 21-5 27-10 23-12 21-14 16-13 14-13 7-8 10-13 10-15 14-27 6-18 7-28 3-21 1-13v-13l-2-24-4-24-6-20-7-19-13-25-12-18-8-10-12-13-9-9-11-9-17-12-18-10-21-10-24-8-21-5-28-3zm309 254-5 2-3 16-3 14-13 44-9 20-13 23-9 15-10 15-1 3 15 14 12 11 13 13 6 5 5 5 11 10 9 11 7 7 7 8 5 1 8-7 10-13 11-15 11-18 13-22 12-25 9-24 9-27 10-40 4-23 1-6v-15l-11-1z" fill="#FEFEFE"/>
<path transform="translate(1637,126)" d="m0 0h79l40 1 30 3 13 3 21 9 15 9 13 11 11 12 10 15 9 17 5 15 3 15 1 11v713l-1 34-2 8-7 6-17 7h-5v2l-8 1-4-1-3-6-10-5-5-6-2-12-1-55-1-687-3-13-9-16-6-7v-2l-4-2-8-6-8-4-9-2-12-1-35-1h-1499l-39 1-16 2-10 4-14 10-7 8-8 14-5 17-1 966v128l3 19 4 11 6 9 9 10 14 9 11 4 6 1 16 1 726 1 13 1 9 3 7 6 5 10v23l-6 12-7 6-7 2-84 1h-625l-43-1-19-2-18-4-15-6-12-7-11-8-12-11-10-13-10-16-6-14-5-17-2-12-1-13-1-28-1-169v-143l1-743 2-29 4-19 9-20 8-14 7-9 11-12 12-10 18-11 14-6 17-4 18-2 24-1z" fill="#FBFBFB"/>
<path transform="translate(1168,288)" d="m0 0h27l16 3 15 6 12 7 11 9 9 10 10 16 7 16 3 14 1 11v13l-3 15-6 14-1 8 4 6 10 13 9 10 8 8 7 8 10 11 7 8 12 14 14 17 10 11 6 7 5 3h8l19-3h17l20 4 7-1 11-8 9-11 8-8 6-9h2l2-4 10-11 9-11 10-11 9-11 12-14 11-11 3-9-3-11-6-18-1-7v-20l4-16 5-13 6-11 9-12 13-13 14-9 10-5 15-4 10-1h18l15 2 14 4 14 7 16 13 11 13 9 16 6 14 3 16v25l-4 16-8 16-7 11-9 11-11 9-16 9-13 5-16 3h-24l-18-2h-11l-2 5-5 8-9 10-12 13-9 11-10 11-9 11-7 7-7 9-13 15-12 13-2 5 1 6 6 13 3 10 1 7v23l-4 15-4 10-8 14-9 12-8 8h-2v2l-11 7-14 7-12 4-12 2h-27l-15-3-11-4-13-7-14-12-2-4h-2l-11-15-9-19-4-16v-23l2-11 4-12 5-9-1-7-13-16-9-10-9-11-26-30-12-14-7-7-9-11-10-11v-2l-4-2-10-2-20 2h-18l-19-2h-9l-5 4-9 12-10 10-8 10-8 9-7 8-7 9h-2l-2 4-10 11-8 10-13 15-11 12-1 2v7l7 15 3 12v29l-3 13-5 11-6 11-9 12-14 14-16 9-12 5-16 4h-32l-16-4-16-7-13-10-12-12-9-13-6-13-5-15-2-14v-13l2-14 5-16 4-10 11-16 14-14 13-8 12-6 15-4 14-2h18l18 4 5 1 8-7 9-10 3-4h2l2-4 9-10 9-11 2-3h2l2-4 9-10 8-10 12-13 9-11 12-12 4-8 1-4-9-27-1-4v-26l5-19 8-17 4-5 10-13 10-9 14-9 10-5 14-4zm12 63-8 2-8 6-7 7-5 9-1 11 3 10 6 8 8 7 4 2 16 1 10-4 8-6 7-8 2-4v-12l-4-11-6-9-6-5-7-3zm447 0-9 3-12 11-5 8-2 11 3 12 6 8 8 7 9 3h12l8-3 13-10 4-6 1-3v-13l-5-13-9-10-6-3-13-2zm-674 257-8 3-10 9-5 6-2 5-1 9 3 12 7 9 8 7 8 3h12l12-6 9-9 4-7 1-6-2-14-4-8-5-6-6-4-12-3zm445 1-8 5-8 7-5 10-1 3v12l5 10 9 10 7 4 4 1h11l10-4 10-9 6-10v-13l-4-13-7-8-8-4-3-1z" fill="#FEFEFE"/>
<path transform="translate(579,767)" d="m0 0h48l18 1 12 3 7 5 4 6 3 15 1 133-1 345-1 18-2 5-10 8-8 4-14 1h-89l-43-1-9-2-6-4-6-8-3-14-1-16-1-68v-76l1-323 2-14 6-9 8-5 8-2 20-1zm-34 64-2 2v414l17 1h42l6-2-1-414-1-1z" fill="#FCFCFC"/>
<path transform="translate(273,896)" d="m0 0h110l13 2 8 3 7 6 3 10 1 16v343l-1 17-2 5-9 8-9 4-23 1h-110l-21-2-8-4-5-8-3-12-1-8-1-20v-235l1-82 1-19 3-12 5-6 10-5 7-1zm14 63v288l19 1h40l6-1-1-287-7-1z" fill="#FDFDFD"/>
<path transform="translate(820,991)" d="m0 0h67l20 2 10 4 7 7 2 10 1 11 1 106v40l-1 109-1 13-3 7-10 7-8 3-14 1h-75l-53-1-12-2-7-4-5-8-2-6-2-21v-224l1-30 2-8 4-6 9-6 11-2 20-1zm-20 64-1 1v191l26 1h32l7-2-1-190-3-1z" fill="#FDFDFD"/>
<path transform="translate(562,606)" d="m0 0h69l72 1 13 2 10 5 6 8 1 4v24l-3 8-8 9-9 3-37 1h-228l-16-2-8-6-6-8-1-4v-19l3-11 9-10 5-2 11-1 37-1z" fill="#FDFDFD"/>
<path transform="translate(568,446)" d="m0 0h55l80 1 16 3 8 5 4 5 2 6v23l-4 10-7 8-10 3-45 1h-224l-13-2-5-5-7-9-1-4v-19l3-11 7-8 6-4 12-1 35-1z" fill="#FDFDFD"/>
<path transform="translate(485,287)" d="m0 0h211l19 2 9 4 6 5 3 6v24l-3 9-6 8-6 4-5 1-45 1h-228l-9-2-8-7-5-7-2-9v-10l3-12 4-6 7-7 4-2 15-1z" fill="#FEFEFE"/>
<path transform="translate(246,288)" d="m0 0h65l21 2 8 3 6 5 3 6v22l-2 9-5 9-5 4-7 2-28 1h-31l-25-1-8-2-9-8-5-9-1-6v-8l3-12 6-8 8-7z" fill="#fff"/>
<path transform="translate(268,447)" d="m0 0 51 1 16 2 6 3 5 5 2 4 1 10-1 20-4 10-5 5-10 3h-83l-9-2-5-4-6-8-2-6v-17l2-9 6-8 9-7 6-1z" fill="#fff"/>
<path transform="translate(267,607)" d="m0 0h17l35 1 16 2 9 5 4 6 1 5v18l-2 12-6 10-7 3-5 1h-79l-12-2-9-8-4-8-1-3v-17l3-9 6-8 9-6 6-1z" fill="#fff"/>
</svg>
