<?xml version="1.0" encoding="UTF-8"?>
<svg version="1.1" viewBox="0 0 1552 864" width="1280" height="1280" xmlns="http://www.w3.org/2000/svg">
<path transform="translate(188,145)" d="m0 0h196l28 2 21 3 36 9 23 8 15 8 17 12 13 12 8 7 11 14 8 13 14 29 6 18 6 24 4 22 2 36v31l-2 31-5 26-7 28-9 25-12 30-12 23-12 18-10 14-13 16-9 10-4 5-11 9-13 11-10 8-16 10-22 10-27 9-28 7-26 4-46 4h-208l-4-1v-10l6-32 9-52 3-8 224-1 25-5 14-5 21-11 12-8 12-11 11-12 10-13 10-18 8-17 9-25 7-27 4-24 2-20 1-20-2-28-3-18-5-19-6-13-7-12-8-10-10-9-16-8-14-6-10-3-7-1-106-1-1 10-10 54-8 41-8 53-10 58-5 26-3 5-5 1h-106l-3-1v-9l10-56 17-100 16-90 12-64 5-23z" fill="#FEFEFE"/>
<path transform="translate(657,145)" d="m0 0h196l37 3 25 5 26 7 17 6 23 12 10 8 10 9 10 8 9 11 10 14 12 23 8 21 8 32 5 30 2 40v14l-3 37-5 26-8 32-10 29-10 23-10 19-10 16-11 15-10 14-12 13-11 11-11 9-14 12-15 10-16 8-17 7-25 8-24 6-27 4-45 4h-209l-4-2 2-17 14-77 3-7 223-1 27-5 15-6 17-9 15-10 13-12 12-14 14-21 8-15 9-25 6-21 6-27 3-20 1-11v-40l-3-21-5-19-6-16-9-16-9-10-12-9-16-8-17-6-10-2-107-1-1 10-7 40-22 128-6 35-5 29-2 5-5 1h-108l-3-1v-9l5-27 16-85 16-98 9-47 8-44 6-30 2-4z" fill="#FEFEFE"/>
<path transform="translate(1256,145)" d="m0 0h129l3 2 3 19 11 82 12 89 10 85 7 57 3 27 9 64 14 109v10l-6 2h-106l-2-2-3-18-7-71-10-102-7-79-10-109-4-44-17 35-21 41-13 28-40 80-9 20-13 26-10 19-18 38-25 50-17 35-11 24-12 23-5 6h-117l-3-1 1-7 10-20 7-12 8-16 6-10 10-21 8-16 15-28 9-16 19-38 7-12 8-16 13-24 20-40 11-19 6-12 6-9 9-21 12-22 8-15 10-19 28-54 8-15 12-22 21-42 11-18z" fill="#FEFEFE"/>
</svg>
