<?xml version="1.0" encoding="UTF-8"?>
<svg version="1.1" viewBox="0 0 1552 864" width="1280" height="1280" xmlns="http://www.w3.org/2000/svg">
<path transform="translate(188,77)" d="m0 0h194l30 2 21 3 36 9 23 8 15 8 17 12 13 12 8 7 11 14 8 13 14 29 6 18 6 24 4 22 2 36v31l-2 31-5 26-7 28-9 25-12 30-12 23-12 18-10 14-13 16-9 10-4 5-11 9-13 11-10 8-11 7-16 8-14 6-24 8-27 7-27 4-31 3-15 1h-208l-4-1v-10l6-32 9-52 3-8 224-1 25-5 14-5 21-11 12-8 12-11 11-12 10-13 10-18 8-17 9-25 7-27 4-24 2-20 1-20-2-28-3-18-5-19-6-13-7-12-8-10-10-9-16-8-14-6-10-3-7-1-106-1-1 10-10 54-8 41-8 53-10 58-5 26-3 5-5 1h-106l-3-1v-9l10-56 17-100 8-44 6-36 16-84 4-15z" fill="#FEFEFE"/>
<path transform="translate(657,77)" d="m0 0h194l29 2 21 3 30 7 27 9 23 12 10 8 10 9 10 8 9 11 10 14 12 23 8 21 8 32 5 30 2 40v14l-3 37-5 26-8 32-10 29-10 23-10 19-10 16-11 15-10 14-12 13-11 11-11 9-14 12-15 10-16 8-19 8-34 10-24 5-35 4-27 2h-208l-4-2 2-17 13-72 3-11 1-1 223-1 27-5 15-6 17-9 15-10 13-12 12-14 14-21 8-15 9-25 6-21 6-27 3-20 1-11v-40l-3-21-5-19-6-16-9-16-9-10-12-9-16-8-17-6-10-2-107-1-1 10-7 40-22 128-6 35-5 29-2 5-5 1h-108l-3-1v-9l5-27 16-85 16-98 9-47 8-44 6-30 2-4z" fill="#FEFEFE"/>
<path transform="translate(1256,77)" d="m0 0h129l3 2 3 19 11 82 12 89 10 85 7 57 3 27 9 64 14 109v10l-6 2h-106l-2-2-3-18-7-71-10-102-7-79-10-109-4-44-17 35-21 41-13 28-40 80-9 20-13 26-10 19-18 38-23 46-19 39-11 24-13 25-4 4h-117l-3-1 1-7 8-16 9-16 8-16 6-10 10-21 8-16 15-28 9-16 19-38 7-12 8-16 13-24 20-40 11-19 6-12 6-9 9-21 12-22 8-15 10-19 28-54 8-15 12-22 21-42 11-18z" fill="#FEFEFE"/>
<path transform="translate(1287,740)" d="m0 0h12l6 4 3 3h3l5-5 5-2h12l6 3 4 6v11l-5 22-5 1 1-7 4-19-1-7-5-5h-11l-6 4-4 6-7 28-4 1 1-11 3-14v-8l-5-5-2-1h-9l-8 5-4 8-5 24-5 1 1-8 7-33 5-1v4z" fill="#FEFEFE"/>
<path transform="translate(97,725)" d="m0 0 25 1 11 4 7 8 2 5v14l-4 10-7 8-5 4-11 4-17 1h-15l-1-5 10-50 2-3zm0 5-3 12-6 29-1 8 1 1h20l11-2 10-6 6-9 2-6v-14l-3-6-6-5-8-2z" fill="#FEFEFE"/>
<path transform="translate(568,726)" d="m0 0h28l9 3 5 3 5 9 1 4v11l-4 11-9 10-10 5-4 1-14 1h-18l-1-1 1-11 9-44zm4 4-2 2-9 43 1 5h21l12-3 9-6 5-8 2-6v-14l-6-9-6-3-5-1z" fill="#FEFEFE"/>
<path transform="translate(475,721)" d="m0 0 3 1-2 13-9 46-1 2-5-1v-2l-6 3-6 1h-9l-8-4-5-6-1-4v-11l5-10 8-7 6-2h10l7 3 5 4 3-9 4-16zm-30 23-7 4-5 6-3 9 1 9 6 7 2 1h14l6-4 5-6 2-7v-9l-3-5-7-5z" fill="#FEFEFE"/>
<path transform="translate(1209,721)" d="m0 0h2l-1 9-8 42-3 11h-4l-2-3-5 3-14 1-8-3-6-8-1-3v-8l4-11 7-8 8-3h10l8 3 6 4 2-13 3-12zm-27 22-8 3-6 5-4 8-1 9 4 9 5 3 7 1 9-2 6-4 4-8 1-3v-11l-6-7-9-3z" fill="#FEFEFE"/>
<path transform="translate(731,740)" d="m0 0h10l8 3 5 4 3-7 3 1-5 28-3 13-4 1-1-3-6 3-7 1h-8l-7-3-5-5-2-4v-12l3-8 4-6 3-3zm-1 4-9 6-4 7-1 4v9l4 7 4 3 8 1 9-2 6-5 4-8 1-11-4-6-5-4-2-1z" fill="#FEFEFE"/>
<path transform="translate(1032,724)" d="m0 0 3 3 7 26 7 27v4l-4-1-4-14h-34l-9 14-5 1 2-5 11-17 10-15 9-14zm-2 8-7 10-11 18v4h28l-2-12-5-18-1-2z" fill="#FEFEFE"/>
<path transform="translate(1123,740)" d="m0 0h9l8 3 7 4v-5l4-2-1 9-4 22-3 12h-4v-4l-7 4-14 1-7-2-6-7-2-5v-9l4-10 7-8zm-1 4-7 4-6 7-2 7v7l4 8 5 3 7 1 9-2 8-7 3-8v-10l-4-6-4-3-3-1z" fill="#FEFEFE"/>
<path transform="translate(1234,740)" d="m0 0h10l7 3 5 6 2 5v9h-38l2 10 2 4 4 2h15l9-4-1 4-5 4-5 1h-11l-7-3-5-5-3-7v-7l4-11 6-7 5-3zm-1 4-6 4-5 6-1 6 4 1h19l10-1-1-7-4-6-5-3z" fill="#FEFEFE"/>
<path transform="translate(640,740)" d="m0 0h11l7 3 5 6 2 9-1 5-37 1 1 8 3 5 4 2h14l10-4-1 4-5 4-7 1h-10l-8-4-5-7-1-3v-11l5-10 5-5zm0 4-7 4-6 10 1 2 5 1h23l5-2-1-6-3-5-7-4z" fill="#FEFEFE"/>
<path transform="translate(501,740)" d="m0 0h10l7 3 5 6 2 7v6l-1 1-37 1 1 8 3 5 4 2h14l9-4 2 1-5 6-8 2h-12l-7-4-5-7-1-3v-10l6-12 7-6zm-1 4-8 5-5 9v2l5 1h24l5-2-1-6-3-5-7-4z" fill="#FEFEFE"/>
<path transform="translate(946,740)" d="m0 0h11l8 4 5 7 1 3v9l-4 10-5 6-7 4-6 1h-10l-7-4-5-8-1-4v-7l4-10 6-7zm-1 4-8 5-5 7-1 3v12l4 6 4 3 8 1 8-2 8-7 3-7v-12l-6-7-4-2z" fill="#FEFEFE"/>
<path transform="translate(317,740)" d="m0 0h11l6 3 6 7 2 6-1 10-4 8-7 7-9 3h-11l-7-4-4-5-2-5v-10l4-9 6-7 6-3zm-1 4-8 5-5 6-1 3v13l4 7 4 2h14l6-4 4-4 3-8v-9l-3-6-7-5z" fill="#FEFEFE"/>
<path transform="translate(1439,740)" d="m0 0h13l7 4 4 5 2 5v10l-3 8-7 8-6 3-5 1h-10l-6-3-5-6-2-5v-11l6-12 9-6zm1 4-8 4-5 7-2 7 1 10 4 6 3 2 10 1 6-2 6-4 5-9v-13l-6-7-4-2z" fill="#FEFEFE"/>
<path transform="translate(851,740)" d="m0 0h11l8 4 5 7 1 4v8l-4 10-5 6-7 4-6 1h-9l-8-4-5-8-1-10 4-11 6-7zm-1 4-8 5-4 5-2 5v12l4 6 4 3 8 1 8-2 8-7 3-6 1-7-2-8-7-6-2-1z" fill="#FEFEFE"/>
<path transform="translate(374,740)" d="m0 0h9l8 4 3 5v10l-4 20-3 5-3-1 2-11 3-16-1-6-4-4-2-1h-10l-8 5-3 4-7 29h-5l2-11 6-29 1-2 4 1v4l5-4z" fill="#FEFEFE"/>
<path transform="translate(686,740)" d="m0 0h13l7 3v4l-7-1-2-1h-11l-6 4-1 6 3 3 16 5 5 4v8l-6 7-2 1h-22l-5-4v-2l5 1 9 2h7l6-2 3-5v-4l-20-8-4-5v-6l4-6z" fill="#FEFEFE"/>
<path transform="translate(250,740)" d="m0 0h12l7 3 2 4-8-1-3-1h-10l-6 2-1 9 5 3 11 3 5 3 3 3v6l-4 6-4 3h-22l-5-5 2-2 6 3 13 1 6-2 2-2 1-5-4-4-16-6-5-6 1-6 5-6z" fill="#FEFEFE"/>
<path transform="translate(1395,740)" d="m0 0h11l7 3 3 4-1 4-9-6-9-1-9 4-5 6-2 5v12l4 6 2 2 9 1 8-2 5-4h3l-1 5-6 4-3 1h-14l-7-4-5-8-1-8 2-9 6-9 8-5z" fill="#FEFEFE"/>
<path transform="translate(1078,740)" d="m0 0h10l8 4 2 3v3l-4-1-6-4-9-1-10 5-5 7-1 3v12l4 6 3 2 9 1 9-3 4-2 3 1-4 5-8 3h-13l-8-6-4-7-1-9 4-11 5-6 8-4z" fill="#FEFEFE"/>
<path transform="translate(172,740)" d="m0 0 4 2 8 33v3l4-4 14-22 8-11 3-1-1 5-12 19-11 16-4 4-4-2-8-30-2-11z" fill="#FEFEFE"/>
<path transform="translate(919,721)" d="m0 0h3l-1 9-10 50-1 3-4 1 1-11 10-48z" fill="#FEFEFE"/>
<path transform="translate(897,721)" d="m0 0h3l-1 10-9 46-2 6-3 1-1-5 11-54z" fill="#FEFEFE"/>
<path transform="translate(824,740)" d="m0 0h5l1 3-10 3-4 3h-2l-3 10-5 22-3 3h-2l1-10 6-31 1-2h4l1 6 5-5z" fill="#FEFEFE"/>
<path transform="translate(793,740)" d="m0 0 6 1-1 2-10 3-6 4-5 16-3 15-1 2h-4l1-10 6-30 1-2 4 1 1 5 5-5z" fill="#FEFEFE"/>
<path transform="translate(225,740)" d="m0 0 3 1-5 26-4 16h-4l1-9 7-31z" fill="#FEFEFE"/>
<path transform="translate(158,741)" d="m0 0h4l-2 12-6 30h-5l1-8 7-32z" fill="#FEFEFE"/>
<path transform="translate(287,740)" d="m0 0 2 1-4 23-4 18-4 2-1-3 8-38z" fill="#FEFEFE"/>
<path transform="translate(1365,740)" d="m0 0 3 1-8 38-1 4-3 1-1-5 6-30 2-8z" fill="#FEFEFE"/>
<path transform="translate(333,724)" d="m0 0 4 1-3 3-10 5h-2l2-4z" fill="#FEFEFE"/>
<path transform="translate(1250,724)" d="m0 0 4 1-5 4-8 4h-2l2-4z" fill="#FEFEFE"/>
<path transform="translate(289,723)" d="m0 0 4 2-1 4h-5l-1-4z" fill="#FEFEFE"/>
<path transform="translate(228,723)" d="m0 0 4 2-2 4h-5l1-5z" fill="#FEFEFE"/>
<path transform="translate(161,723)" d="m0 0 5 2-1 4h-5l-1-4z" fill="#FEFEFE"/>
<path transform="translate(1365,724)" d="m0 0h6v4l-6 1-1-3z" fill="#FEFEFE"/>
</svg>
