<?xml version="1.0" encoding="UTF-8"?>
<svg version="1.1" viewBox="0 0 2048 2048" width="1280" height="1280" xmlns="http://www.w3.org/2000/svg">
<path transform="translate(1008,137)" d="m0 0h30l23 3 21 6 17 7 18 10 16 12 14 12 9 9 13 18 9 16 7 15 10 28 3 10h72l31 2 8 3 4 5 3 11 2 21 1 17v13l10-1h82l24 1 28 3 23 5 21 8 17 8 21 13 16 12 14 12 7 7 7 8 9 11 10 15 8 14 11 23 6 18 5 21 3 27 1 17v1093l-2 39-3 24-5 22-6 18-11 23-8 12-12 17-11 13-5 6-8 7-10 9-18 13-21 12-24 10-17 5-21 4-23 3-33 2h-762l-27-1-31-3-19-4-16-5-17-7-21-11-16-11-13-11-10-9-10-10-9-11-9-12-13-22-12-25-5-15-5-21-3-24-2-37v-1104l2-23 3-15 8-26 9-22 11-20 7-10 10-14 18-20 15-14 16-12 18-11 17-8 15-6 23-6 29-4 17-1h98l8 1v-33l3-21 3-9 4-5 9-2 17-1h85l4-19 6-16 12-25 12-18 8-10 9-10 4-4h2v-2l13-10 17-11 16-8 16-6 13-4 18-3zm4 57-19 3-21 7-11 6-11 8-9 8-7 8-9 12-7 12-8 20-6 26-5 23-5 9-7 2-11 1h-90v16l-1 29v68l3 1h472l1-1v-112l-2-1h-96l-10-2-4-5-9-42-6-20-4-9-9-17-9-12-4-5h-2l-1-3-10-8-16-10-15-6-18-5-10-1zm-312 216-74 1-25 2-19 3-18 6-16 8-13 8-16 12-7 6-7 8-10 12-15 24-8 18-6 20-3 17-1 13-1 27v1099l2 21 3 16 5 16 9 21 10 16 8 10 8 9h2v2l8 7 12 10 19 12 17 8 21 6 17 3 33 2h770l36-2 19-3 15-4 19-8 13-7 17-12 10-9 4-3v-2l3-1 9-11 7-9 9-15 8-19 6-22 3-20 1-14 1-67v-1030l-1-31-3-27-5-18-9-20-8-15-12-16-11-12-8-7-13-10-21-12-21-8-21-5-15-2-13-1-50-1h-37l-19 1-1 71-3 11-6 11-2 2-13 2-43 1h-412l-83-1-13-2-6-7-5-10-2-14v-65z" fill="#fff"/>
<path transform="translate(673,722)" d="m0 0h446l17 1 9 2 5 3 3 7v21l-2 12-5 6-7 3-5 1-442 1h-71l-37-1-11-1-5-3-5-6-2-6-1-14 3-13 5-7 7-4 5-1z" fill="#fff"/>
<path transform="translate(623,1322)" d="m0 0h511l18 1 9 2 6 5 2 6v23l-2 12-4 3-7 2-8 1-22 1h-501l-27-1-12-2-5-6-3-10v-18l3-10 6-7 3-1z" fill="#fff"/>
<path transform="translate(701,1625)" d="m0 0h429l28 2 6 3 3 3 2 11-1 26-2 6-7 3-15 1-46 1-289 1h-99l-92-1-21-1-11-2-5-6-3-10v-18l4-11 6-6 6-1z" fill="#fff"/>
<path transform="translate(888,1018)" d="m0 0h154l82 1 20 2 6 4 2 4 1 6v14l-1 15-3 5-7 3-25 2h-517l-21-1-11-2-4-4-3-13v-15l3-12 7-6 3-1 38-1z" fill="#fff"/>
<path transform="translate(1453,1175)" d="m0 0h7l12 6 10 7 4 7 1 3v11l-5 10-11 14-8 11-11 14h-2l-2 4-12 14-9 11-12 14-11 13-11 14-11 12-7 8-9 10-11 10-9 6-6 1-9-5-11-9-15-14-14-15-9-10-10-11-9-11-13-16-8-12-2-4 1-4 8-12 4-5 14-10h6l13 7 12 11 11 11 7 8 10 10 8 10 6 3 4-2 7-7 9-11 10-13 9-10 8-11 9-10 18-22h2l2-4 9-10 9-11h2v-2l11-7z" fill="#fff"/>
<path transform="translate(1439,581)" d="m0 0 6 1 11 6 8 6 5 6 2 6v8l-4 9-8 11-13 16-4 6-44 52-12 14-11 14-9 10-9 11-9 9-16 14-4 2-6-1-11-7-12-11-8-7-2-4h-2l-7-8-14-15-24-28-13-17-5-9 1-6 10-14 14-10 2-1 9 1 10 6 10 9 14 14 8 10 8 8v2h2l2 5h2l5 5 5-1 5-4 11-14 10-12 11-14 9-10 10-13 12-13 11-14 7-7 7-8 8-7z" fill="#fff"/>
<path transform="translate(1434,880)" d="m0 0h13l9 4 8 6 5 6 2 6v11l-7 12-10 12-10 13-9 11-13 16-10 13h-2l-2 4-12 14-9 10-7 8-12 14-9 10-7 8-13 12-11 6h-6l-13-7-13-11-16-17-11-12-9-10-9-11-12-14-11-16-4-10 2-6 9-10 7-6 7-3 8-1 10 3 8 6 5 4 12 15 8 7 7 8 9 10v2l4 2 1 1h5l6-7 7-8 11-13 9-10 8-11 12-14 8-10 9-10 8-10h2l2-4 9-10 9-9z" fill="#fff"/>
<path transform="translate(1453,1472)" d="m0 0 11 1 10 6 9 7 4 8 1 10-6 12-12 15-11 14-9 11-11 14-13 15-8 10-12 13-18 22h-2l-2 4-16 17-9 9-10 7-7 3-5-1-12-7-14-12-8-8-7-8-10-11-7-8-13-15-9-11-10-13-5-10-1-9 7-8 9-8 10-5h10l10 5 10 9 7 8 12 12v2h2l7 8 11 13 6 1 2-3h2l2-5 6-7h2l2-4 9-10 11-14 7-8 8-10 10-12 9-11 24-26 10-9z" fill="#FEFEFE"/>
</svg>
