<?xml version="1.0" encoding="UTF-8"?>
<svg version="1.1" viewBox="0 0 2048 2048" width="1280" height="1280" xmlns="http://www.w3.org/2000/svg">
<path transform="translate(216,85)" d="m0 0h114l355 2h708l263-2h178l31 2 22 4 19 6 21 9 15 8 15 10 17 13 8 8 4 3v2h2l7 8 10 13 7 11 10 17 8 15 11 28 5 15 2-1v1532l-1-2h-2l-2 10-9 27-9 20-9 16-10 14-13 16-12 13-11 10-14 11-14 9-19 10-16 6-23 6-30 5-27 2-42 1h-1078l-122 1h-105l-272-1-32-3-25-6-22-8-21-10-15-10-14-11-12-11-17-17-11-14-10-15-14-27-12-30-1-2h-2v-3h2l-2-7v-1535l3-3 6-14 6-16 12-25 7-12 12-17 7-9 11-12 14-13 11-8 12-8 14-8 15-7 22-8 16-4 23-3zm475 84-452 1-33 1-26 3-15 4-15 8-17 12-13 12-10 12-11 18-5 10-4 13-3 15-1 16-1 49v247l1 7 666 2h647l364-1h194l3-1 1-124v-157l-1-34-3-17-7-21-8-15-9-12-9-10-10-9-15-10-16-8-17-6-23-3-35-1h-238l-267-1zm385 512-10 1v341l121 1h146l111-1 4-1 1-63 1-236v-42zm-655 0-336 1v341l5 1h288l117-1 14-1 1-1 1-288v-52zm556-1-172 1-208 1-1 210v96l1 35 151 1h126l101-1 4-1 1-262 1-80zm903 1-343 1-1 2-1 30-1 238v67l1 4 164 1h216l44-1 1-1 1-340-1-1zm-185 426-158 2-1 1-1 14-1 323 1 3 6 1h414l5-1 1-299v-42l-31-1-143-1zm-1537 1-72 1-1 21v320l184 1h240l1-1v-341l-156-1zm493 0-53 1-1 5-1 285 1 52h382l1-278v-64l-118-1zm539-1-90 1h-33l-1 1v342h366l16-1 1-85v-256l-206-2zm-575 427-17 1-1 7v335l78 1h304l1-1v-252l1-91zm451 0v343l78 1 305-1v-342h-54l-251-1zm-830 0-151 1v198l2 34 3 17 5 16 7 14 8 11 12 14h2v2l11 9 15 10 14 7 21 6 15 2 40 2 171 1h93l7-1v-33l-1-88v-105l1-75v-41h-47l-153-1zm1300 1-1 5v337h173l127-1 17-1 18-4 15-5 18-10 12-9 12-11 3-3v-2h2l11-15 8-14 5-17 3-15 1-10 1-27v-197l-3-1z" fill="#FEFEFE"/>
<path transform="translate(2045,1793)" d="m0 0h2l-1 4h-2z" fill="#fff"/>
<path transform="translate(2047,1804)" d="m0 0 1 4-2-1z" fill="#fff"/>
<path transform="translate(2044,1799)" d="m0 0h2v2h-2z" fill="#fff"/>
<path transform="translate(0,1793)" d="m0 0" fill="#fff"/>
</svg>
