<?xml version="1.0" encoding="UTF-8"?>
<svg version="1.1" viewBox="0 0 2048 2048" width="1280" height="1280" xmlns="http://www.w3.org/2000/svg">
<path transform="translate(751)" d="m0 0h425l-4 2-7 1-21 1-2 2 81 9 59 8 66 11 36 7 61 14 36 10 45 14 45 16 29 12 20 9 26 12 26 14 25 15 15 10 14 10 16 12 15 13 8 7 14 14 9 11 8 10 12 18 10 18 10 25 3 12 1 7v886l6 8 10 9 11 9 15 14 18 18 7 8 11 13 15 20 16 24 14 25 10 19 11 25 11 30 8 25 6 26 6 32 3 24 1 15v51l-2 25-3 23-7 35-8 30-10 28-5 13-15 33-12 22-7 11-13 20-14 20-12 14-11 13-16 17-11 11-8 7-11 10-9 7-10 8-15 11-14 9-18 11-16 9-28 14-27 11-34 12-41 11-14 3h-4l-2 5-4-1-5 1h-123l2-2-26-6-43-12-26-8-27-10-20-9-17-8-24-14-32-21-10-5-16 2-46 6-40 4-86 6-59 3-43 1h-76l-47-1-43-2-43-3-98-9-26-3-94-14-79-16-64-16-41-12-43-14-31-12-29-12-35-16-22-11-21-12-21-13-14-10-16-12-17-14-26-26-9-11-11-15-12-21-8-19-5-19-2-17-1-39v-1278l2-16 4-12 9-21 8-15 8-13 8-11 9-10 5-7h2v-2h2v-2h2l2-4 12-12 8-7 12-10 17-13 21-14 25-15 24-13 30-15 30-13 25-10 34-12 30-10 34-10 48-12 35-8 43-8 51-9 50-7 74-9 39-4 13-1zm388 3m-261 68-69 3-73 5-52 5-65 8-41 6-76 14-43 10-32 8-55 16-41 14-31 12-19 8-29 13-19 10-16 9-20 12-20 14-13 10-15 13-8 8-11 14-11 18-7 16-4 20v12l4 16 8 17 11 17 11 13 15 15 11 9 13 10 18 12 22 13 28 15 19 9 28 12 36 14 36 12 32 10 45 12 42 10 56 11 47 8 64 9 58 6 61 5 67 4 22 1 43 1h61l43-1 60-3 63-5 74-7 45-6 63-10 36-7 51-11 51-13 53-16 43-15 27-11 18-8 20-9 26-13 15-9 21-13 17-12 14-11 12-11 7-6v-2l3-1 11-14 6-9 8-16 4-10 2-10v-18l-3-14-5-13-9-16-12-16-11-12-11-10-14-11-14-10-19-12-24-14-36-18-28-12-26-10-36-13-45-14-40-11-51-12-29-6-52-9-36-6-39-5-81-9-37-3-51-3-75-3zm-771 408v284l1 17 4 18 7 14 11 16 7 9 11 12 14 13 14 11 17 12 28 17 27 14 29 14 20 8 29 11 28 10 37 12 35 10 49 12 47 10 55 10 62 9 42 5 65 6 59 4 67 3 37 1h59l66-2 66-4 80-7 44-5 53-8 42-7 54-11 31-7 51-13 37-11 36-12 25-9 34-14 17-8 21-10 22-12 17-10 18-12 12-9 13-10 15-14 9-9 3-4v-2h2l9-13 9-19 3-9 2-15 1-251v-43l-4-1-14 11-13 10-15 11-15 10-24 14-26 14-21 10-14 7-36 15-25 9-34 12-30 9-32 9-53 13-75 15-67 10-51 7-65 6-69 5-68 3-35 1h-87l-68-2-46-2-59-5-79-8-31-4-80-13-54-11-36-8-45-12-40-12-35-12-44-17-27-12-25-12-23-13-11-6-25-15-18-13-17-13-10-8zm0 431v284l2 24 4 14 7 13 14 20 11 12 12 12 10 8 13 10 19 13 22 13 26 14 23 11 34 14 35 13 35 12 52 15 44 11 47 10 48 9 43 7 61 8 64 6 54 4 59 3 30 1 51 1h57l43-1 48-2 13-1 4-6 6-18 7-19 8-22 13-28 14-27 12-19 12-18 10-13 8-10 7-9 12-14 11-11 6-7 2-1v-2l4-2 11-11 11-9 8-7 13-10 18-13 19-12 18-10 23-12 27-12 34-12 30-8 32-6 30-4 15-1h63l25 2 36 6 30 7 29 9 24 9 21 10 17 9 2-2v-254l-5 1-10 8-16 12-18 13-21 13-19 11-18 10-23 11-28 13-27 11-56 20-44 13-50 13-35 8-70 14-85 12-44 5-69 6-62 4-61 2-49 1h-45l-85-2-41-2-49-4-85-8-38-5-72-11-60-12-36-8-49-13-33-10-36-12-37-14-22-9-18-8-27-13-22-12-22-13-11-7-18-12-19-14-10-8zm1405 276-25 3-36 7-26 7-21 8-16 6-16 7-22 12-14 8-13 9-16 12-11 8-11 10-8 7-12 11-8 8-7 8-10 11-12 16-7 10-7 11-9 15-8 14-8 16-9 20-10 25-6 21-8 37-4 22-2 23v48l3 27 5 28 8 32 8 24 10 24 8 17 13 23 12 20 12 17 11 14 12 13 9 10 13 13 8 7 10 9 17 13 17 12 20 12 16 9 15 8 26 11 17 6 23 7 27 6 18 3 34 3h50l29-3 28-5 33-9 28-10 24-11 16-8 23-13 22-15 17-13 13-11 11-9 6-7 6-5 7-8 13-14 11-14 8-11 6-8 10-16 8-14 12-23 13-32 8-27 7-28 4-23 3-29v-53l-3-29-4-24-8-32-12-36-12-26-14-27-12-19-11-16-13-16-9-11-12-13-12-12-8-7-13-11-14-11-19-14-28-17-21-11-28-12-33-11-19-5-36-6-27-3zm-1405 155v293l2 19 5 15 10 16 9 12 11 12 9 9 11 9 17 13 11 7 14 9 24 14 15 8 23 11 25 11 31 12 34 12 32 10 35 10 57 14 48 10 57 10 49 7 49 6 84 7 72 4 26 1 44 1h48l67-2 55-3 93-7 14-2 1-3-6-10-11-14-12-17-12-19-14-25-14-28-8-19-8-21-8-24-7-26-5-26-4-28-2-26v-48l1-7v-8l-46 2-34 1h-100l-79-2-52-3-106-9-36-4-92-14-75-15-48-12-35-10-45-14-30-11-27-11-26-11-31-15-22-12-27-16-27-18-12-9-15-12z" fill="#FEFEFE"/>
<path transform="translate(1752,1363)" d="m0 0h8l12 5 11 6 5 4 7 10 3 7-1 9-4 10-9 15-9 14-8 12-8 11-11 16-14 21-9 12-15 22-8 12-10 14-11 15-18 27-8 11-10 14-22 33-8 10-7 11-10 14-6 9-11 15-7 9-9 11-10 10-5 4-10 3-12-3-14-7-17-13-16-13-10-8-17-14-10-8-14-12-9-7-12-10-10-8-13-11-11-9-14-12-8-7-7-6-14-16-5-10 1-11 5-10 6-8 9-8 11-5h8l12 5 18 12 10 8 17 14 14 11 11 9 17 14 17 13 14 12 8 6 9 9 11 9 5 1 7-8 8-12 7-9 7-11 19-28 6-8 11-16 10-14 7-10 11-16 13-18 9-13 13-19 12-17 11-16 13-19 16-23 7-11 8-10 9-13 10-8z" fill="#FEFEFE"/>
<path transform="translate(743)" d="m0 0 1 2 4-1 1 2h-8l2-1z" fill="#fff"/>
<path transform="translate(1453,2045)" d="m0 0 2 3-5-1z" fill="#fff"/>
<path transform="translate(1177)" d="m0 0 2 1z" fill="#fff"/>
<path transform="translate(746)" d="m0 0" fill="#fff"/>
</svg>
