<?xml version="1.0" encoding="UTF-8"?>
<svg version="1.1" viewBox="0 0 2048 2048" width="1280" height="1280" xmlns="http://www.w3.org/2000/svg">
<path transform="translate(858,42)" d="m0 0h320l52 1 25 3 19 5 16 6 20 10 15 10 13 11 8 7 10 10 11 14 10 15 8 16 7 16 6 21 3 21 1 12 1 38v140l16-8 21-12 28-14 22-12 27-14 19-10 25-12 19-7 21-6 25-4h29l26 4 24 7 18 8 16 9 13 9 14 12 14 14 10 13 10 15 12 20 18 34 12 23 21 41 9 17 8 16 15 29 10 19 14 27 12 23 12 22 10 20 10 19 9 17 11 23 9 20 6 18 6 28 1 13v16l-2 18-5 24-4 12-7 15-8 16-7 11-10 13-9 10-5 6-11 9-10 8-16 11-17 10-24 12-20 9-5 3 4 4 36 18 18 10 19 12 15 11 14 12 11 12 10 14 9 15 8 16 6 15 5 17 4 20 1 8v29l-3 19-4 17-8 21-13 29-28 54-7 14-7 12-8 16-17 33-18 34-20 39-10 19-11 22-10 19-20 39-14 25-10 16-13 17-11 12-9 9-11 9-14 10-16 8-19 8-22 6-29 5h-34l-26-5-28-10-39-19-19-10-24-13-36-18-22-12-23-12 1 4v152l-1 23-3 27-5 19-7 20-12 23-11 16-9 11-4 5h-2v2l-8 7-12 10-14 9-14 8-18 8-17 5-24 4-22 2-26 1-231 1h-99l-34-1-27-2-18-3-20-6-18-8-15-8-14-10-11-10-8-7-11-12-14-19-14-27-6-15-6-21-3-19-1-14-1-32v-84l1-43 1-15-25 12-62 32-47 25-24 11-20 8-18 5-28 5h-34l-25-4-23-7-18-8-15-9-16-12-12-11-9-9-9-11-10-14-12-20-10-18-13-25-10-19-12-23-16-31-10-19-10-20-10-18-8-16-18-35-12-22-24-47-10-19-11-22-14-35-6-24-2-12-1-20 2-17 5-25 5-17 7-16 9-17 9-13 10-14 12-13 13-11 19-13 9-6 22-12 15-8 12-6 9-6-3-3-16-8-23-11-14-8-18-12-17-13-22-22-10-13-11-18-10-21-7-21-5-24-1-6v-32l5-26 6-20 6-15 14-29 17-33 10-19 12-23 13-25 10-19 12-23 11-20 8-16 9-17 8-16 45-87 15-27 11-17 8-11 9-10 7-8 12-11 11-8 18-11 15-7 24-8 24-5 8-1h34l22 4 26 8 24 10 17 9 16 8 22 12 46 23 20 11 17 10 9 5v-171l1-19 4-23 9-26 9-19 8-14 8-11 13-16 9-9 11-9 12-9 13-8 17-9 21-7 19-4 20-2zm-21 82-31 2-14 3-14 7-12 9-12 11-8 10-6 9-8 18-4 16-1 9-1 237-2 18-3 10-6 9-10 8-11 7h-8l-4 1-14-6-23-11-31-16-22-12-23-12-22-12-39-20-23-12-30-15-17-7-19-5-18-1-20 3-12 4-14 7-12 8-10 9-9 11-7 10-15 27-10 19-6 11-8 16-10 19-8 16-12 22-8 16-20 39-14 27-10 19-24 46-7 13-10 19-10 18-13 28-4 11-4 21v21l3 16 5 13 6 11 10 14 9 10 17 12 18 10 60 32 29 15 19 10 11 7 9 7 8 10 4 10v14l-7 14-11 11-15 10-30 15-22 12-20 10-19 10-23 12-19 12-10 8v2h-2l-7 8-7 9-6 11-7 18-3 15-1 18 4 20 7 19 12 26 9 17 8 16 12 23 13 24 14 27 10 19 12 24 12 22 12 24 10 19 20 39 10 19 11 20 8 16 12 20 11 14 9 9 21 14 16 6 17 4 16 1 17-3 14-4 16-6 40-20 22-12 37-19 19-10 26-14 20-10 19-10 25-13 10-4 5-1h12l18 8 5 4h2l6 12 2 7 1 9 1 102v139l3 22 5 17 6 12 10 13 14 14 15 10 14 7 14 4 14 2 16 1h150l232-1 19-2 17-5 16-8 14-10 13-13 11-16 4-9 4-14 2-9 1-9 1-31 1-225 4-11 6-8 19-12 4-2 10 1 16 6 25 12 20 10 20 11 16 8 23 12 22 12 29 15 22 12 34 17 16 6 20 5 6 1h14l15-3 16-5 21-11 10-8 7-6 8-10 10-15 12-22 11-20 8-16 20-39 17-33 10-19 29-56 10-18 8-16 18-35 10-18 8-16 8-15 13-29 5-22 1-7v-16l-2-14-4-15-8-16-10-14-10-10-13-10-26-15-26-13-19-10-29-15-28-15-11-7-7-6h-2l-2-4-7-9-4-9v-10l3-11 10-14 9-7 21-12 16-8 25-13 22-12 16-8 36-20 14-10 7-6 7-8 4-5 9-15 5-11 4-19v-23l-5-24-6-15-12-25-20-39-10-19-12-23-10-19-12-23-12-22-21-41-12-23-15-29-21-41-13-25-10-17-10-14-10-11-8-7-14-9-16-7-18-4-14-1-16 1-21 5-29 13-29 15-32 17-34 18-23 12-22 11-22 12-21 10-16 8-11 4h-11l-12-6-12-8-3-3-5-13-1-6-1-240-1-17-3-15-5-14-8-15-8-10-13-13-13-9-17-8-11-3-20-2z" fill="#fff"/>
<path transform="translate(1011,324)" d="m0 0h33l21 2 15 3 18 6 16 8 13 7 17 12 15 13 9 9 14 19 12 21 9 21 6 19 3 15 2 24v14l-2 21-5 19-9 24-9 16-10 15-9 12-14 14-8 7-2 8-1 18-1 123v68l1 6 5 2 29 12 16 8 12 7 16 13 13 13 10 15 6 15 3 12 1 15-3 14-6 17-8 13-9 11-9 9-15 11-16 9-12 6-25 10-9 3v188l5 2 26 10 21 10 12 8 12 9 15 15 10 15 7 16 3 12 1 7v10l-4 17-6 14-8 12-9 11-7 7-16 12-15 9-26 12-20 8-1 1v140l-2 17-6 18-8 15-11 12-5 5-11 9-16 8-21 7-20 4h-28l-19-3-15-4-17-8-14-10-7-6-9-11-7-10-6-13-4-15-2-15v-65l-11 3-8 6-4 5-6 11-8 15-9 10-11 6-5 1h-12l-12-3-9-6-7-7-6-10-2-7v-19l3-12 9-19 11-14 5-6 14-11 15-10 16-8 30-13 6-2 1-178-1-8-14-7-18-8-23-12-17-12-13-12-10-12-8-15-5-15-2-12 1-17 3-12 8-18 9-12 8-9 11-9 10-7 21-12 18-8 21-9 1-185-5-2-26-12-23-12-17-12-10-9-11-11-9-14-6-17-6-16-7-11-9-10-5-7-4-11-3-11-1-8v-12l3-17 6-15 6-11 8-11 7-7 14-9 12-4 12-2 16 1 8 2 14 7 10 9 6 7 8 15 4 11 1 17-1 6-4 19-6 15-6 12-7 11-2 5 2 1 2 4 15 10 15 9-1-12v-118l-2-12-8-10-16-17-9-11-11-18-8-16-8-22-4-17-2-11-1-26 1-19 5-25 5-15 8-19 8-15 10-16 9-11 7-7 6-7 11-9 14-10 22-12 17-7 13-4 17-3zm10 81-21 3-16 6-11 6-15 13-11 14-8 14-5 12-4 16-1 7v21l5 21 9 20 9 12 8 9 11 9 15 9 14 6 20 4h21l16-3 18-7 18-11 12-11 7-8 7-11 5-10 5-14 2-8 1-9v-11l-2-17-4-15-7-16-7-11-12-14-10-8-14-8-15-6-15-3-9-1zm-21 284-1 11v123l9 4 45 13 8 2v-60l1-59v-32l-1-1-45-1zm0 220-2 1 1 132 11-2 47-12 3-2 1-3 1-58v-36l-14-6-39-12zm144 49m1 1-2 1v21l2 10 10-1 11-4 4-5-1-8-4-6-7-6-5-2zm-86 151-26 8-32 9-3 2 1 98 26 8 28 8 8 1 1-97 1-37zm-145 51-15 5-6 3-3 4 1 7 4 6 6 5 11 4h4l1-3 2-31zm84 151 1 133 11-2 48-12 2-1 1-10 2-87-6-4-24-8-28-8zm145 50-1 2 1 30 1 2 13-3 10-5 2-2 1-7-5-8-9-7-5-2zm-81 152-34 8-27 8-2 1-1 3v57l1 36 3 7 5 5 5 2 20 2 18-3 7-4 3-6 1-23 1-64 1-29z" fill="#FEFEFE"/>
<path transform="translate(907,714)" d="m0 0 2 4h-2z" fill="#fff"/>
<path transform="translate(1846,1021)" d="m0 0" fill="#fff"/>
<path transform="translate(902,767)" d="m0 0"/>
<path transform="translate(898,767)" d="m0 0"/>
<path transform="translate(903,765)" d="m0 0"/>
<path transform="translate(900,762)" d="m0 0"/>
<path transform="translate(907,754)" d="m0 0"/>
<path transform="translate(908,720)" d="m0 0" fill="#fff"/>
<path transform="translate(909,700)" d="m0 0" fill="#fff"/>
<path transform="translate(907,644)" d="m0 0" fill="#fff"/>
</svg>
