<?xml version="1.0" encoding="UTF-8"?>
<svg version="1.1" viewBox="0 0 2048 2048" width="1280" height="1280" xmlns="http://www.w3.org/2000/svg">
<path transform="translate(547,127)" d="m0 0h710l23 2 15 4 16 8 13 9 13 11 19 19 7 8 11 12 7 8 13 14 7 8 9 10 11 12 7 7 7 8 7 7 7 8 15 16 7 8 15 16 7 8 24 26 15 16 7 8 11 12 14 15 2 4h2l7 8 11 12 7 8 9 10 13 17 10 16 5 13 2 15v1242l-1 71-2 19-4 15-10 19-9 12-8 8h-2v2l-17 10-14 5-15 3-29 2-58 1h-903l-51-1-19-2-15-4-17-9-15-14-9-10-9-16-5-11-3-12-2-19-1-38-1-1215v-192l1-128 2-38 3-14 5-12 8-14 9-11 8-7 9-8 16-9 13-4 13-2 13-1zm77 63-89 1-26 1-12 2-6 4-6 8-4 9-2 14-1 128v1453l1 16 3 10 6 9 6 5 9 3 18 2h1e3l23-2 9-4 5-4 5-7 3-12 1-10 1-759v-350l-1-158-1-1h-201l-38-1-25-2-12-3-16-8-13-10-13-13-9-13-7-14-4-16-2-20-1-55v-44l1-157-1-1-192-1zm664 18 1 7 1 235 2 14 4 10 5 4 12 4 16 2h214l-2-4-9-10-7-8-11-12-7-8-10-11-7-8-6-7h-2l-2-4-8-8-7-8-12-13-7-8-9-10-11-12-9-10-7-8-12-13-7-8-14-15-12-13-8-8-1-2h-2l-2-4-9-9-7-8-15-16-8-8-7-8-13-13z" fill="#FDFDFD"/>
<path transform="translate(1268,1158)" d="m0 0h95l28 1 15 3 14 7 10 9 6 7 8 13 4 11 1 6 1 37v215l-1 223-1 17-2 9-7 13-8 10-9 9-10 7-9 2-9 1-33 1h-90l-19-1-16-4-11-7-11-11-8-14-4-13-1-7-1-22v-440l1-28 4-13 10-15 9-10 9-7 13-6 8-2zm29 64-31 1-1 130v342l9 1h91l17-1 1-1 1-243v-222l-1-7z" fill="#FEFEFE"/>
<path transform="translate(1011,1290)" d="m0 0h52l26 1 15 3 10 4 9 7 9 9 10 14 4 10 1 4v352l-2 18-5 14-7 9-8 9-13 10-11 3-10 1-26 1h-101l-21-2-12-5-9-7-11-11-8-14-3-12-1-7-1-18v-304l1-34 2-9 7-13 6-8h2l2-4 11-10 13-7 18-3zm-40 65-7 1-1 296v43l9 1h80l27-1 3-2v-222l1-115-1-1z" fill="#FEFEFE"/>
<path transform="translate(667,1431)" d="m0 0h88l30 1 15 2 11 4 9 6 10 9 12 18 2 5 1 8 1 25v115l-1 68-2 20-4 12-5 8-11 12-10 8-8 4-15 2-27 1h-98l-17-1-12-3-9-5-10-9-7-7-8-12-4-14-1-7-1-17v-123l1-72 4-16 10-15 13-14 10-7 11-4 6-1zm110 64-115 1v192l1 7 7 1h94l15-1 2-1v-198z" fill="#fff"/>
<path transform="translate(843,921)" d="m0 0h299l174 1 10 2 8 4 7 8 2 8v20l-4 11-9 8-8 3-529 1h-54l-15-1-9-3-8-8-4-10v-21l5-13 6-5 7-3 9-1z" fill="#fff"/>
<path transform="translate(886,760)" d="m0 0h52l306 1 13 2 8 4 4 5 4 8 1 4v14l-3 10-6 10-10 5-3 1-36 1h-489l-12-3-5-4-6-10-2-9v-11l3-12 3-6 5-5 7-3 25-1z" fill="#fff"/>
<path transform="translate(795,1082)" d="m0 0h284l53 1 13 2 8 4 6 9 3 9v9l-4 16-3 6-8 8-4 1-107 1h-297l-16-1-7-3-5-4-6-10-2-7v-15l3-10 6-9 8-4 9-2z" fill="#fff"/>
<path transform="translate(910,549)" d="m0 0h233l69 1 13 4 6 4 5 10 2 12-2 14-5 12-8 5-11 2-3 1h-385l-15-1-8-4-5-5-6-17v-11l5-12 4-6 5-4 7-3 5-1z" fill="#fff"/>
</svg>
