<?xml version="1.0" encoding="UTF-8"?>
<svg version="1.1" viewBox="0 0 2048 2048" width="1280" height="1280" xmlns="http://www.w3.org/2000/svg">
<path transform="translate(1970,238)" d="m0 0h19l12 3 15 8 11 9 20 26 1 1v844l-2-2-1 3-5 5-8 11-9 9-16 9-32 14-25 10-27 11-29 11-22 5h-19l-16-4-15-8-3-1h-7l-9 5-8 4-21 9-32 15-16 8-27 13-12 6-4 9-7 17-9 12-9 11-12 12-12 8-14 8-21 8-13 4-16 3-11 1-4 4 1 7 1 4v13l-3 21-4 15-10 21-13 19-11 12-14 13-16 10-12 6-24 7-11 2-18 1-1 1v32l-2 16-8 23-9 17-11 15-12 14-9 8-16 11-16 8-13 5-20 4-15 2h-11l-6-1h-12l1 19-2 14-8 22-7 16-12 17-11 13-8 8-14 11-16 9-15 6-16 4-12 2-24 1-21-2-16-4-19-8-23-12-21-13-10-7-14-10-9-7-5 2-5 6-6 8h-2v2h-2v2h-2l-2 4h-2l-2 4-15 13-11 7-11 5-18 6-17 3-15 1h-12l-20-2-16-5-9-4-13-7-14-11-7-6-7-8-8-10-11-17-4-11-4-16-2-3-3-1-25 3h-15l-19-2-18-6-19-9-10-7-13-11-7-7-8-10-9-13-6-12-4-13-3-10-5-2h-7l-21 4h-15l-3-2-17-3-19-7-14-7-13-10-10-9-8-8-13-18-7-12-4-11-4-16-7-1-26 4h-11l-12-3-16-3-20-8-14-8-11-9-3-2v-2l-4-2-10-11-11-16-9-17-6-18-3-12-1-9v-18l3-18 5-16 9-22 4-13v-3l-26-13-10-8-11-6h-11l-15 5-19 8-11-2-16-4-26-9-28-11-41-17-24-11-12-7-14-12-7-10-6-7-2-1v-846l4-5h2l2-4 9-11 9-9 18-11 15-6 13 1 16 5 23 11 21 12 25 15 28 17 18 11 22 13 20 12 24 15 28 17 15 9 23 14 16 10 40 24 28 17 16 10 25 15 18 11 17 12 7 6 9 13 8 16 8 3 12 1h61l36-3 45-7 31-6 33-9 19-6 6-4 5-8 8-16 7-13 7-11 9-12 7-8 5-5h2l1-3 14-11 18-11 18-8 18-5 23-4 9-1 42-1h164l21 2 21 5 18 6 34 14 24 11 31 12 36 12 34 9 44 8 36 4 36 2 36-1 17-1 11-2 3-3 8-16 6-8 7-7 8-7 15-10 15-9 23-14 21-13 28-17 17-10 25-15 19-12 17-10 15-9 21-13 20-12 16-10 27-16 14-9 26-16 32-19 25-15 16-8 15-6zm8 69-25 15-13 8-22 13-21 13-22 13-16 10-27 16-19 12-22 13-25 15-23 14-13 8-20 12-26 16-24 15-17 10-25 15-17 11-2 2 1 7 7 15 11 26 11 25 13 31 13 30 15 35 16 37 12 28 11 25 39 91 11 25 23 54 12 28 11 25 13 31 11 26 14 33 9 20 7 16 3 2 13-4 20-8 37-14 34-14 11-6 2-2v-793zm-1909 68-1 9-1 501v65l1 217 2 4 10 6 33 12 15 6 26 10 16 7 16 5 5-5 6-18 9-19 5-13 21-49 8-18 11-25 11-26 22-50 16-37 11-26 9-20 13-30 40-92 9-20 24-56 26-60 11-24 7-16-1-5-16-10-13-8-15-9-39-24-24-15-28-17-21-13-28-17-26-16-20-12-47-29-16-10-29-17-23-14-34-22zm911 135-45 1-23 2-16 4-16 8-10 7-10 9-8 11-8 15-6 16-8 32-7 31-16 61-14 44-11 30-9 22-10 23-8 16-6 16-1 5v10l3 8 4 6 10 9 12 7 15 6 15 4 15 2h27l16-3 20-6 16-8 12-7 10-8 11-10v-2h2l11-14 10-14 12-19 8-13 12-22 20-40 10-14 9-7 4-2h8l14 5 19 10 18 11 33 22 16 10 35 23 22 14 15 10 20 13 46 30 18 12 19 12 33 22 16 10 33 22 16 10 24 16 24 15 15 10 17 11 16 10 33 22 19 12 10 7 19 12 44 29 14 12 12 12 10 14 7 12 9 23 4 2 12-3 17-9 25-11 22-10 10-5 1-1v-9l-10-27-9-20-15-35-11-26-18-41-18-42-42-96-13-30-16-37-18-41-16-37-33-77-11-26-4-6h-11l-34 3-14 1h-43l-35-3-48-7-29-6-26-7-33-10-35-13-24-10-28-12-23-9-21-6-13-2-25-1zm-228 129-43 11-43 7-31 4-34 3-22 1h-19l-45-3-12-1-4 7-5 12-11 26-7 16-5 13-11 25-18 41-13 29-17 40-18 41-10 23-18 41-8 20-13 29-13 30-14 32-10 24-26 60-8 18-8 16-1 7 8 7 16 10 14 9 8 6 7 3 2-1v-2h2l9-14 7-11 11-17 10-13 5-5v-2l4-2 10-8 18-10 20-8 17-4 20-2 17 1 18 4 17 6 16 8 16 12 10 9 11 15 11 19 6 15 4 12 1 2h11l9-2h29l19 4 17 6 16 8 11 8 10 8 9 10 10 14 8 14 6 16 4 11 2 3 11-1 14-2h20l14 2 17 5 12 5 15 8 13 10 14 14 9 13 8 14 6 16 3 13 2 22 2 2 32 3 15 3 16 5 12 5 12 7 12 9 13 13 11 15 7 12 6 15 5 18 2 13v18l-3 20-5 18-9 21-8 16 1 6 9 6 12 7 16 10 20 13 21 11 12 4 8 1h14l13-4 17-9 12-11 9-12 5-17 2-11v-15l-5-16-7-13-11-12-20-20-6-12 1-6 7-14 9-11 9-6h12l15 5 19 11 18 12 10 6 21 10 14 3h14l10-2 12-5 10-6 10-8v-2l3-1 9-12 5-18 1-6v-17l-5-16-7-14-9-10-15-15-8-10-5-10 1-7 10-16 11-11 3-2 6-1 11 2 10 4 20 11 13 8 14 5 11 3 15 1 16-4 16-8 12-10v-2h2l8-14 4-6 3-12 1-15-2-15-5-12-7-11-11-12-16-16-7-11v-13l5-10 7-9 11-8 4-2 11 1 12 5 24 14 20 9 13 4 15 1 15-3 19-9 12-11 7-8 7-18 2-10v-17l-4-16-8-16-8-9-18-13-27-18-16-10-39-26-16-10-30-20-19-12-30-20-16-10-15-10-20-13-26-17-14-9-17-11-18-12-16-10-33-22-16-10-36-24-16-10-15-10-22-14-34-22-28-19-12-8-3 3-6 15-14 24-9 15-8 12-10 13-9 12v2h-2l-9 11-10 11-8 7-13 10-15 10-21 11-21 7-32 8-13 2h-35l-21-3-20-5-18-6-23-11-12-8-11-9-10-11-10-15-5-11-5-15-2-9-1-11v-10l3-15 5-15 11-26 10-22 12-29 12-33 15-50 6-24 1-6zm-307 578-14 3-15 9-7 6-9 13-11 17-9 15-10 17-7 11-9 14-8 13-10 17-5 14-3 11v12l5 17 6 11 5 6 13 10 15 6 12 2h10l16-5 12-7 12-11 12-16 14-24 10-16 11-17 10-16 7-11 11-21 3-10 1-12-3-16-7-14-11-12-10-7-13-6-7-2-8-1zm157 100-12 3-15 8-11 13-8 13-9 14-14 24-7 10-6 10-12 19-8 13-7 14-4 13-1 5v12l4 15 6 12 8 9 9 7 11 5 10 3 14 2 15-4 16-8 10-9 12-15 7-10 8-14 12-20 10-15 13-21 12-21 5-11 3-13-1-16-5-13-7-11-4-5h-2l-1-3-10-7-14-6-10-2zm170 98-20 4-12 5-10 9-10 13-18 30-8 13-7 11-15 24-6 9-10 17-5 14-3 11v11l3 14 8 16 9 10 14 7 11 4 12 2h11l9-2 12-5 9-6 7-7 7-10 9-14 8-14 10-16 9-14 6-9 8-13 6-10 10-18 5-12 2-15-2-15-7-16-9-12-8-7-16-7-14-1zm137 126-15 4-14 7-9 10-10 14-11 18-8 14-9 13-13 21-7 15-5 17v15l5 16 8 14 8 7 8 5 15 6 10 2h14l12-4 11-6 11-8 8-10 10-15 11-18 21-33 12-24 3-13v-13l-2-13-8-16-6-8-9-8-11-6-13-3z" fill="#FEFEFE"/>
<path transform="translate(2045,1132)" d="m0 0h3l-1 3-3 1v-3z" fill="#fff"/>
<path transform="translate(574,1607)" d="m0 0" fill="#fff"/>
</svg>
