<?xml version="1.0" encoding="UTF-8"?>
<svg version="1.1" viewBox="0 0 2048 2048" width="1280" height="1280" xmlns="http://www.w3.org/2000/svg">
<path transform="translate(1013,1542)" d="m0 0h19l13 4 12 7 13 12 7 10 5 12 1 7v394l-1 13-5 13-9 12-7 7-21 15h-36l-14-14-11-8-10-11-4-11-2-13-1-36v-323l1-36 2-11 8-16 9-10 10-8 16-8z" fill="#53CCB3"/>
<path transform="translate(1e3)" d="m0 0h47l7 9 11 9 9 11 6 10 3 7v402l-1 11-4 10-9 13-8 9-13 8-13 5-4 1h-14l-15-4-12-7-11-10-8-11-5-12-2-9-1-11-1-25v-310l1-59 4-10 8-11 13-13 8-7z" fill="#21BA9D"/>
<path transform="translate(1517,1251)" d="m0 0h8l19 5 23 11 23 13 45 26 28 16 22 13 14 8 71 41 18 10 48 28 26 15 24 15 10 8 8 7 7 10 6 13 2 12-1 13-4 12-6 10-9 11-9 8-14 7-11 2h-13l-15-4-14-6-23-13-26-15-24-14-26-15-48-28-52-30-24-14-23-13-15-9-28-16-23-13-15-10-11-9-9-9-5-9-6-16-1-5v-13l5-14 5-10 9-10 8-7 15-8z" fill="#54CDB4"/>
<path transform="translate(181,481)" d="m0 0h11l16 4 16 7 23 13 21 12 24 14 70 40 29 17 21 12 23 13 25 14 17 10 39 23 19 11 17 11 9 7 11 11 6 12 4 16v14l-3 10-8 15-10 12-13 9-16 6-7 2-7-1-16-4-20-10-24-14-42-24-25-15-25-14-27-16-26-15-14-8-25-15-25-14-24-14-28-16-23-13-19-13-12-11-4-5-8-16-3-11v-11l3-12 7-14 7-9 7-7 15-9 8-3z" fill="#21BA9D"/>
<path transform="translate(1309,1464)" d="m0 0 16 2 14 5 11 7 10 10 12 18 15 26 14 24 15 26 28 49 17 29 10 17 10 18 12 21 10 17 13 22 12 21 14 24 13 24 7 15 3 9 1 6v10l-5 16-9 14-11 12-14 8-15 3h-18l-12-3-11-7-11-11-9-13-11-18-17-29-12-20-12-21-14-24-14-25-9-15-16-28-15-26-12-21-28-48-15-26-10-18-10-22-4-12v-14l5-13 7-13 9-10 8-7 10-5 10-3z" fill="#54CDB4"/>
<path transform="translate(534,129)" d="m0 0h9l14 2 11 4 13 9 10 11 11 17 14 24 15 26 13 23 14 24 16 28 10 17 28 49 15 26 13 22 15 26 12 21 15 27 9 19 3 9 1 5v9l-3 10-7 14-8 11-8 8-10 6-18 6h-14l-16-4-12-7-7-7-13-18-21-35-15-26-13-22-16-28-15-26-16-28-10-17-14-24-12-21-14-24-12-21-14-24-12-22-8-16-5-13-2-11 3-14 8-16 7-10 9-9 12-7 6-2z" fill="#21BA9D"/>
<path transform="translate(1846,482)" d="m0 0h18l16 4 12 6 10 9 7 8 6 12 3 10 1 12-2 12-6 14-9 12-8 8-15 10-23 13-24 14-28 16-24 14-27 15-17 10-21 12-48 28-43 25-23 13-16 9-15 9-28 14-12 4-16-1-15-5-12-8-11-11-5-7-6-18-1-6v-12l7-20 4-7 11-12 9-6 20-12 28-16 22-13 29-17 24-14 26-15 23-13 21-12 20-12 24-14 26-15 28-16 24-14 24-13z" fill="#87DDCB"/>
<path transform="translate(728,1465)" d="m0 0h14l12 3 14 7 12 11 8 13 6 15 1 5v9l-4 15-15 30-28 49-15 25-10 18-8 14-15 26-14 24-9 16-8 13-13 23-10 17-14 25-10 17-13 22-15 25-10 13-9 8-11 6-14 3h-16l-11-2-14-6-12-11-6-9-6-12-4-13v-13l7-19 12-23 10-17 14-24 16-28 6-10 9-16 10-17 12-21 10-17 14-24 9-16 15-26 16-28 15-26 11-19 8-14 12-18 11-12 10-6 13-4z" fill="#BCF1E8"/>
<path transform="translate(1493,130)" d="m0 0h23l11 3 12 6 10 9 8 10 6 13 3 12v9l-3 13-8 18-9 16-16 28-12 20-10 18-10 17-9 16-12 21-15 26-8 13-13 23-14 24-14 25-14 24-9 15-14 24-9 15-9 13-7 8-15 8-14 5h-15l-16-4-14-7-8-7-7-10-8-20-2-6v-11l4-14 8-17 13-23 10-17 15-26 9-15 15-26 8-14 14-24 14-25 13-22 12-21 10-17 14-25 14-24 11-19 10-17 8-13 7-9 9-9 12-7z" fill="#87DDCB"/>
<path transform="translate(511,1253)" d="m0 0h18l12 3 16 8 10 9 8 11 5 12 2 8v13l-4 16-8 15-9 10-14 10-26 15-17 10-16 9-24 14-18 10-21 12-16 9-17 10-28 16-24 14-28 16-24 14-52 30-25 13-13 4-5 1h-14l-13-4-10-5-12-11-6-8-7-15-2-8v-17l4-13 4-9 4-6 10-11 9-6 21-12 20-11 19-11 15-9 21-12 13-8 23-13 22-13 26-15 17-10 28-16 65-38 42-24 15-6z" fill="#BCF1E8"/>
<path transform="translate(1589,964)" d="m0 0h399l13 1 11 4 11 7 9 9 11 14 5 7v37l-3 1-2 4-14 17-8 8-9 5-8 3-8 1-27 1h-372l-15-2-10-5-11-9-10-13-7-15-3-11v-11l4-12 5-12 9-11 10-9 12-7z" fill="#86DCCA"/>
<path transform="translate(144,964)" d="m0 0h303l16 2 14 7 10 9 7 8 7 12 4 12v15l-4 12-6 12-9 13-7 7-12 6-9 2-10 1-44 1h-347l-13-1-11-4-9-6-10-11-6-8-8-10v-42l12-12 7-8 12-10 10-5 4-1z" fill="#BCF1E8"/>
<path transform="translate(468,1068)" d="m0 0 4 2 3 5-8 4-9 2-10 1-44 1h-65l-96-1-2-3 26-2h107l12-1h35l13 1 7-4 9-1 7-3z" fill="#8ADECD"/>
<path transform="translate(1617,1078)" d="m0 0h189l6 2h5l1 2-37 1h-184l-7-1 2-2 15-1z" fill="#5DD0B8"/>
<path transform="translate(1517,1251)" d="m0 0h8l19 5 23 11 23 13 12 7v2l-5 1h-3l-12-3-4-2-10-4-9-5-9-3-12-7-11-4v-2h-2v-2l-9-1-1-4z" fill="#26BB9F"/>
<path transform="translate(298,964)" d="m0 0h149l7 1v2l-5 2h-56l-22-1-66-1h-78l-78-1v-1z" fill="#87DDCB"/>
<path transform="translate(1081,1616)" d="m0 0 2 2v57l-1 167-2-3v-7l-1-3-1-29v-72l1-26v-30l1-47z" fill="#21BA9D"/>
<path transform="translate(1956,1079)" d="m0 0h27l1 3-15 1h-60l-4-2 11-1h32z" fill="#62D1BA"/>
<path transform="translate(1913,520)" d="m0 0 2 1 3 10 1 12-2 12-3 1-1-8z" fill="#55CDB4"/>
<path transform="translate(965,1592)" d="m0 0h1l1 8-1 16h-2v62h-1v-82z" fill="#25BB9E"/>
<path transform="translate(1081,1879)" d="m0 0h1l1 21-1 81h-1l-1-15v-85z" fill="#21BA9D"/>
<path transform="translate(1846,482)" d="m0 0h18l7 2-4 1v2h-23l-3-3z" fill="#5ACFB6"/>
<path transform="translate(1913,1484)" d="m0 0 3 3 3 15-1 11h-3l-1-5-1-4z" fill="#29BCA0"/>
<path transform="translate(1559,1837)" d="m0 0 4 4 3 13v10l-2 1-2-1-2-17v-7z" fill="#2ABDA1"/>
<path transform="translate(1562,172)" d="m0 0 2 2 2 9v9l-2 7-2 1v-9l-1-18z" fill="#5BCFB7"/>
<path transform="translate(132,1487)" d="m0 0 1 4-2 23h-2v-17z" fill="#82DBC9"/>
<path transform="translate(1863,1561)" d="m0 0 6 1-1 2-3 1h-13l-6-2v-1h14z" fill="#2CBEA2"/>
<path transform="translate(1498,130)" d="m0 0h18l3 2-10 1-12-1z" fill="#58CEB6"/>
<path transform="translate(655,1541)" d="m0 0h2l2 5-2 2-5 1 1-5z" fill="#8DDFCE"/>
<path transform="translate(1991,1077)" d="m0 0h6l1 2h-2v2h-7z" fill="#54CDB4"/>
<path transform="translate(1612,1294)" d="m0 0 5 2 4 2-1 3-5-1v-3l-3-1z" fill="#2CBEA2"/>
<path transform="translate(516,1253)" d="m0 0h10l-1 3h-7l-2-1z" fill="#87DDCB"/>
</svg>
